<?xml version="1.0" encoding="utf-8"?>
<!-- Generator: Adobe Illustrator 15.1.0, SVG Export Plug-In . SVG Version: 6.00 Build 0)  -->
<!DOCTYPE svg PUBLIC "-//W3C//DTD SVG 1.1//EN" "http://www.w3.org/Graphics/SVG/1.1/DTD/svg11.dtd">
<svg version="1.1" id="Layer_1" xmlns="http://www.w3.org/2000/svg" xmlns:xlink="http://www.w3.org/1999/xlink" x="0px" y="0px"
	 width="149.167px" height="172.243px" viewBox="0 0 149.167 172.243" enable-background="new 0 0 149.167 172.243"
	 xml:space="preserve">
<polygon fill="#585858" points="149.167,129.183 74.583,172.243 0,129.183 0,43.061 74.583,0 149.167,43.061 "/>
<g>
	<path fill="#FFFFFF" d="M109.937,75.279c1.625,0,3.016,0.576,4.166,1.727c1.15,1.15,1.727,2.54,1.727,4.166
		c0,1.627-0.576,3.015-1.727,4.166s-2.541,1.727-4.166,1.727v17.677c0,1.596-0.584,2.977-1.75,4.143
		c-1.166,1.167-2.547,1.75-4.143,1.75C91.248,99.984,78.788,94.153,66.666,93.14c-1.78,0.583-3.176,1.597-4.189,3.038
		c-1.013,1.443-1.489,2.984-1.427,4.627c0.061,1.642,0.675,3.061,1.841,4.258c-0.614,1.012-0.967,2.018-1.059,3.015
		c-0.092,0.998,0,1.888,0.276,2.67c0.276,0.782,0.79,1.627,1.542,2.532s1.488,1.673,2.21,2.301c0.721,0.63,1.664,1.404,2.831,2.325
		c-0.891,1.78-2.601,3.054-5.133,3.821c-2.532,0.766-5.118,0.943-7.757,0.529c-2.64-0.414-4.665-1.266-6.076-2.555
		c-0.215-0.707-0.667-2.049-1.358-4.028s-1.182-3.43-1.473-4.351c-0.292-0.92-0.645-2.285-1.059-4.097
		c-0.415-1.81-0.645-3.36-0.69-4.649c-0.046-1.289,0.007-2.8,0.161-4.534c0.153-1.733,0.49-3.429,1.013-5.087h-5.616
		c-2.025,0-3.76-0.721-5.202-2.163c-1.443-1.442-2.164-3.177-2.164-5.202v-8.838c0-2.025,0.721-3.759,2.164-5.202
		c1.442-1.442,3.176-2.164,5.202-2.164h22.096c13.349,0,27.097-5.892,41.246-17.677c1.596,0,2.977,0.583,4.143,1.75
		c1.166,1.167,1.75,2.547,1.75,4.143V75.279z M104.044,103.083V59.168c-12.092,9.269-23.876,14.531-35.353,15.789v12.429
		C80.261,88.674,92.044,93.908,104.044,103.083z"/>
</g>
</svg>
